<?xml version="1.0" encoding="UTF-8"?>
<svg id="_レイヤー_1" data-name="レイヤー 1" xmlns="http://www.w3.org/2000/svg" viewBox="0 0 486.56 147.44">
  <defs>
    <style>
      .cls-1 {
        fill: #212121;
      }

      .cls-2 {
        fill: #fff;
        stroke: #fff;
        stroke-miterlimit: 10;
      }
    </style>
  </defs>
  <rect class="cls-1" width="486.56" height="147.44"/>
  <path class="cls-2" d="m72.57,102.96c-2.31,0-4.31-.57-6.02-1.71-1.71-1.14-2.87-2.68-3.49-4.63-4.43,4.55-10.23,6.83-17.39,6.83-3.73,0-6.77-1.15-9.13-3.45s-3.54-5.17-3.54-8.6c0-8.49,10.06-15.36,30.18-20.62l.37-9.69v-.31c0-2.98-.74-5.35-2.2-7.11-1.47-1.76-3.43-2.64-5.87-2.64s-4.51.59-6.21,1.77c-1.7,1.18-2.57,2.66-2.61,4.44-.04,2.65-.74,4.72-2.08,6.21-1.35,1.49-3.14,2.24-5.37,2.24-1.33,0-2.4-.39-3.23-1.18-.83-.79-1.24-1.84-1.24-3.17,0-3.19,2.9-6.53,8.69-10.03,5.8-3.5,11.18-5.25,16.15-5.25,4.47,0,8.09,1.33,10.87,3.97,2.77,2.65,4.16,6.21,4.16,10.68v.75l-.93,28.07v.43c0,4.35,1.41,6.52,4.22,6.52,1.37,0,2.96-.83,4.78-2.48l.43-.12c.33,0,.64.22.93.65.29.44.43.9.43,1.4,0,1.2-1.25,2.67-3.76,4.41-2.51,1.74-5.23,2.61-8.16,2.61Zm-9.51-28.01c-12.05,2.74-18.07,7.27-18.07,13.58,0,5.9,2.27,8.84,6.81,8.84,2.19,0,4.34-.55,6.47-1.65,2.13-1.1,3.56-2.46,4.3-4.08l.5-16.69Z"/>
  <path class="cls-2" d="m156.76,101.41c0,1.16-.33,1.74-.99,1.74-1.66,0-3.69-.12-6.09-.37-2.65-.25-4.98-.37-7-.37s-4.44.12-7.12.37c-2.44.25-4.48.37-6.13.37-.66,0-.99-.58-.99-1.74,0-1.04.33-1.59.99-1.68,2.86-.33,4.73-1.14,5.62-2.42.89-1.28,1.34-3.98,1.34-8.07v-20.74c0-4.64-.91-8.03-2.73-10.19-1.82-2.15-4.64-3.23-8.45-3.23-2.4,0-4.52.46-6.37,1.37-1.84.91-3.82,2.53-5.93,4.84v27.95c0,4.1.44,6.79,1.34,8.07.89,1.28,2.76,2.09,5.62,2.42.66.08.99.64.99,1.68,0,1.16-.33,1.74-.99,1.74-1.7,0-3.77-.12-6.21-.37-2.69-.25-5.05-.37-7.08-.37s-4.31.12-6.96.37c-2.44.25-4.51.37-6.21.37-.66,0-.99-.58-.99-1.74,0-1.04.33-1.59.99-1.68,3.56-.45,5.86-1.31,6.89-2.57,1.03-1.26,1.55-3.9,1.55-7.91v-22.94c0-3.31-.43-5.48-1.27-6.51-.85-1.03-2.74-1.71-5.68-2.05-.66,0-.99-.55-.99-1.65,0-1.01.33-1.52.99-1.52,4.1-1.03,7.51-2.2,10.25-3.51,2.73-1.3,4.45-2.37,5.15-3.2.41-.5.87-.75,1.37-.75,1.16,0,1.74.33,1.74.99l-.5,7.83c5.95-5.55,11.49-8.32,16.61-8.32,5.62,0,10.01,1.61,13.17,4.84,3.16,3.23,4.74,7.58,4.74,13.04v23.72c0,4.06.51,6.71,1.52,7.95,1.01,1.24,3.28,2.09,6.8,2.55.66.08.99.64.99,1.68Z"/>
  <path class="cls-2" d="m204.25,102.96c-2.31,0-4.31-.57-6.02-1.71-1.71-1.14-2.87-2.68-3.49-4.63-4.43,4.55-10.23,6.83-17.39,6.83-3.73,0-6.77-1.15-9.13-3.45s-3.54-5.17-3.54-8.6c0-8.49,10.06-15.36,30.18-20.62l.37-9.69v-.31c0-2.98-.74-5.35-2.2-7.11-1.47-1.76-3.43-2.64-5.87-2.64s-4.51.59-6.21,1.77c-1.7,1.18-2.57,2.66-2.61,4.44-.04,2.65-.74,4.72-2.08,6.21-1.35,1.49-3.14,2.24-5.37,2.24-1.33,0-2.4-.39-3.23-1.18-.83-.79-1.24-1.84-1.24-3.17,0-3.19,2.9-6.53,8.69-10.03,5.8-3.5,11.18-5.25,16.15-5.25,4.47,0,8.09,1.33,10.87,3.97,2.77,2.65,4.16,6.21,4.16,10.68v.75l-.93,28.07v.43c0,4.35,1.41,6.52,4.22,6.52,1.37,0,2.96-.83,4.78-2.48l.43-.12c.33,0,.64.22.93.65.29.44.43.9.43,1.4,0,1.2-1.25,2.67-3.76,4.41-2.51,1.74-5.23,2.61-8.16,2.61Zm-9.51-28.01c-12.05,2.74-18.07,7.27-18.07,13.58,0,5.9,2.27,8.84,6.81,8.84,2.19,0,4.34-.55,6.47-1.65,2.13-1.1,3.56-2.46,4.3-4.08l.5-16.69Z"/>
  <path class="cls-2" d="m265.92,54.33c0,1.66-.51,3.06-1.52,4.22s-2.25,1.74-3.7,1.74c-1.82,0-3.62-.6-5.4-1.8-1.41-.95-2.63-1.43-3.66-1.43-2.69,0-5.47,1.57-8.32,4.72v27.95c0,3.6.62,6.12,1.86,7.55s3.89,2.41,7.95,2.95c.66.08.99.64.99,1.68,0,1.16-.33,1.74-.99,1.74-1.7,0-4.1-.12-7.2-.37-3.43-.25-6.15-.37-8.17-.37s-4.55.12-7.48.37c-2.65.25-4.82.37-6.52.37-.66,0-.99-.58-.99-1.74,0-1.04.33-1.59.99-1.68,3.6-.45,5.91-1.3,6.92-2.54,1.01-1.24,1.52-3.88,1.52-7.94v-22.94c0-3.31-.42-5.48-1.27-6.51-.85-1.03-2.74-1.71-5.68-2.05-.66,0-.99-.55-.99-1.65,0-1.01.33-1.52.99-1.52,4.1-1.03,7.48-2.18,10.13-3.45,2.66-1.26,4.4-2.35,5.22-3.26.49-.5.99-.75,1.48-.75,1.15,0,1.73.33,1.73.99l-.5,7.83c3.31-3.06,6.16-5.22,8.54-6.46s4.75-1.86,7.11-1.86c1.9,0,3.54.62,4.91,1.86s2.05,2.69,2.05,4.35Z"/>
  <path class="cls-2" d="m321.18,57.03c0,3.4-1.7,5.09-5.09,5.09-1.45,0-2.64-.31-3.57-.93s-1.87-1.97-2.83-4.04c-1.12-2.44-2.31-4.05-3.57-4.81-1.26-.77-2.91-1.15-4.94-1.15-5.01,0-8.83,2.08-11.46,6.24-2.63,4.16-3.94,10.24-3.94,18.23,0,6.67,1.66,12.04,4.97,16.12,3.31,4.08,7.74,6.12,13.29,6.12,6.29,0,11.28-1.97,14.97-5.9l.31-.12c.37,0,.73.24,1.09.71.35.48.53,1,.53,1.58,0,.83-1.21,2.26-3.63,4.29-2.42,2.03-5.07,3.56-7.95,4.6-2.88,1.04-5.93,1.55-9.16,1.55-7.41,0-13.76-2.72-19.04-8.17-5.28-5.44-7.92-12.33-7.92-20.65s2.76-15.06,8.29-20.46c5.53-5.4,12.08-8.1,19.66-8.1,5.59,0,10.32.96,14.19,2.89s5.81,4.23,5.81,6.92Z"/>
  <path class="cls-2" d="m394.94,101.41c0,1.16-.33,1.74-.99,1.74-1.66,0-3.71-.12-6.15-.37-2.65-.25-4.98-.37-6.98-.37s-4.47.12-7.17.37c-2.45.25-4.51.37-6.18.37-.67,0-1-.58-1-1.74,0-1.04.33-1.59,1-1.68,2.86-.33,4.74-1.14,5.63-2.42s1.34-3.98,1.34-8.07v-20.74c0-8.94-4.07-13.42-12.2-13.42-5.15,0-9.59,2.07-13.32,6.21v27.95c0,3.73.54,6.31,1.62,7.76s3.2,2.36,6.35,2.73c.66.08,1,.64,1,1.68,0,1.16-.33,1.74-.99,1.74-1.69,0-3.91-.12-6.63-.37-3.06-.25-5.6-.37-7.62-.37s-4.42.12-7.07.37c-2.36.25-4.39.37-6.09.37-.66,0-.99-.58-.99-1.74,0-1.04.33-1.59.99-1.68,3.48-.37,5.73-1.19,6.77-2.45,1.03-1.26,1.55-3.94,1.55-8.04V31.6c0-3.35-.4-5.54-1.21-6.58-.81-1.04-2.68-1.72-5.62-2.05-.66-.08-.99-.61-.99-1.58,0-1.1.33-1.65.99-1.65,7.06-1.66,12.28-3.85,15.66-6.58.62-.5,1.13-.75,1.55-.75,1.15,0,1.73.33,1.73.99-.66,6.79-.99,14-.99,21.61v21.05c5.94-5.63,11.8-8.45,17.57-8.45s10.54,1.61,13.93,4.84c3.39,3.23,5.08,7.58,5.08,13.04v23.72c0,4.06.53,6.72,1.58,7.98,1.06,1.26,3.34,2.1,6.86,2.52.66.08.99.64.99,1.68Z"/>
  <path class="cls-2" d="m457.98,55.54c0,1.06-.33,1.63-.99,1.71-2.82.29-4.98,1.11-6.49,2.47-1.51,1.35-3.18,4.03-5,8.03l-29.31,63.35c-3.27,6.79-7.08,10.19-11.43,10.19-2.11,0-3.8-.57-5.06-1.71-1.26-1.14-1.89-2.6-1.89-4.38s.57-3.38,1.7-4.56c1.13-1.18,2.65-1.77,4.55-1.77.89,0,1.92.31,3.07.93.74.37,1.28.56,1.62.56,1.38,0,2.99-2.32,4.85-6.96l7.76-16.77-14.48-38.88c-1.53-3.79-3.07-6.4-4.63-7.84-1.55-1.44-3.65-2.32-6.3-2.65-.66-.08-.99-.65-.99-1.71,0-1.14.31-1.71.94-1.71,1.61,0,3.57.12,5.88.37,2.59.25,4.86.37,6.82.37s4.31-.12,7.17-.37c2.63-.25,4.79-.37,6.49-.37.66,0,.99.57.99,1.71,0,1.06-.33,1.63-.99,1.71-4.33.54-6.49,1.79-6.49,3.75,0,1.37.57,3.62,1.71,6.75l10.01,25.63,11.86-25.63c1.02-2.36,1.54-4.31,1.54-5.84,0-2.61-2-4.16-6.01-4.66-.66-.08-.99-.64-.99-1.68,0-1.16.33-1.74.99-1.74,1.74,0,3.68.12,5.82.37,2.09.25,3.99.37,5.7.37.85,0,2.24-.1,4.16-.31,2.65-.29,4.78-.43,6.41-.43.68,0,1.02.57,1.02,1.71Z"/>
</svg>